<?xml version="1.0" encoding="utf-8"?>
<!-- Generator: Adobe Illustrator 24.0.1, SVG Export Plug-In . SVG Version: 6.00 Build 0)  -->
<svg version="1.1" id="Layer_1" xmlns="http://www.w3.org/2000/svg" xmlns:xlink="http://www.w3.org/1999/xlink" x="0px" y="0px"
	 viewBox="0 0 301 301" style="enable-background:new 0 0 301 301;" xml:space="preserve">
<style type="text/css">
	.st0{fill:#B81C1F;stroke:#ADADAD;stroke-linejoin:round;}
	.st1{stroke:#ADADAD;stroke-linejoin:round;}
	.st2{fill:#FEF9F7;}
</style>
<g>
	<path class="st0" d="M280.4,75.5L280.4,75.5c-13.2-22.8-32.1-41.7-54.9-54.9l-0.4-0.3l-0.2,0.4l-74.8,129.5l-0.4,0.7h0.9H300h0.5
		v-0.5C300.5,124.2,293.6,98.3,280.4,75.5z"/>
	<path class="st1" d="M150.5,150h-0.9l0.4,0.7l74.8,129.5l0.2,0.4l0.4-0.2c22.8-13.2,41.7-32.1,54.9-54.9
		c13.2-22.8,20.1-48.7,20.1-75V150H300H150.5z"/>
	<path class="st1" d="M75.5,20.6l-0.4,0.2l0.2,0.4l74.8,129.5l0.4,0.7l0.4-0.7l74.8-129.5l0.2-0.4l-0.4-0.2
		c-22.8-13.2-48.7-20.1-75-20.1C124.2,0.5,98.3,7.4,75.5,20.6z"/>
	<path class="st2" d="M144.5,58.6l-7.9,0.2V58c1.1-1,1.8-1.8,2.2-2.3c0.9-1,1.5-1.9,2-2.7c0.6-1.1,0.9-2.1,0.8-3
		c0-0.7-0.2-1.3-0.5-1.7c-0.4-0.5-0.9-0.8-1.6-0.8c-0.6,0-1,0.3-1.3,0.9c-0.2,0.5-0.4,1.1-0.3,1.7h-0.2c-0.4-0.5-0.9-0.9-1.4-1.2
		c0.3-0.8,0.7-1.4,1.4-1.7c0.7-0.4,1.4-0.6,2.3-0.6c1.2,0,2.1,0.2,2.9,0.7c0.9,0.6,1.3,1.4,1.3,2.5c0,0.8-0.2,1.6-0.6,2.2
		c-0.2,0.4-0.6,0.8-0.9,1.2c-0.1,0.1-0.3,0.3-0.7,0.6c-0.6,0.5-1.1,1-1.7,1.5c-0.5,0.4-0.8,0.8-1.1,1v0.1l2.3-0.1
		c0.3,0,0.8,0,1.4-0.1c0.6-0.1,1.1-0.1,1.4-0.1c0,0.3,0,0.5-0.1,0.7c0,0.2,0,0.4,0,0.5c0,0.3,0,0.5,0,0.6
		C144.5,58.2,144.5,58.4,144.5,58.6z M150.3,53.1l-0.1-3.7h1.5l0.1,3.7l3.7-0.1v1.5l-3.7,0.1l0.1,3.8h-1.5l-0.1-3.8l-3.7,0.1v-1.5
		L150.3,53.1z M160.6,58.3l-0.2-10.1c-0.7,0.4-1.4,0.8-2.1,1.1c-0.1-0.2-0.2-0.3-0.3-0.4c-0.1-0.1-0.3-0.3-0.4-0.4v-0.1
		c0.8-0.3,1.7-0.6,2.6-1.1c0.7-0.3,1.5-0.7,2.5-1.3l0.1,0.1l0.3,12.2c-0.2,0-0.4,0-0.4,0c-0.4,0-0.7,0-0.8,0c-0.3,0-0.5,0-0.7,0.1
		C160.9,58.3,160.7,58.3,160.6,58.3z"/>
	<path class="st0" d="M76.2,20.8L76,20.4l-0.4,0.2c-22.9,13.1-41.9,32.1-55,54.9c-13.2,22.8-20.1,48.7-20.1,75v0.5H1h149.5h0.9
		l-0.4-0.7L76.2,20.8z"/>
	<path class="st1" d="M150.9,150.7l0.4-0.7h-0.9H1H0.5v0.5c0,26.3,6.9,52.2,20.1,75s32.1,41.7,54.9,54.9l0.4,0.2l0.2-0.4
		L150.9,150.7z"/>
	<path class="st2" d="M67.8,205.2l4.9,6.2l-0.6,0.5c-1.5-0.2-2.5-0.3-3.2-0.4c-1.3-0.1-2.4-0.1-3.4,0.1c-1.2,0.2-2.1,0.6-2.9,1.2
		c-0.5,0.4-0.9,0.9-1.1,1.4c-0.2,0.6-0.1,1.2,0.3,1.7c0.4,0.4,0.9,0.6,1.5,0.4c0.5-0.1,1.1-0.4,1.6-0.8l0.1,0.1
		c-0.1,0.7-0.2,1.3,0,1.8c-0.8,0.3-1.5,0.2-2.2-0.1s-1.4-0.8-1.9-1.5c-0.7-0.9-1.1-1.8-1.2-2.7c-0.1-1,0.3-1.9,1.2-2.6
		c0.6-0.5,1.4-0.8,2.1-0.9c0.4,0,0.9,0,1.5,0c0.2,0,0.5,0.1,0.9,0.1c0.7,0.1,1.5,0.3,2.3,0.4c0.6,0.1,1.1,0.2,1.5,0.2l0.1-0.1
		l-1.4-1.8c-0.2-0.2-0.5-0.6-0.9-1c-0.4-0.5-0.7-0.8-0.9-1c0.2-0.1,0.4-0.3,0.6-0.4c0.2-0.1,0.3-0.2,0.4-0.3
		c0.2-0.2,0.4-0.3,0.5-0.4C67.6,205.4,67.7,205.3,67.8,205.2z M60,203.9l-2.9,2.3l-1-1.2l2.9-2.3l-2.3-2.9l1.2-1l2.3,2.9l3-2.4
		l1,1.2l-3,2.4l2.3,2.9l-1.2,1L60,203.9z M57.8,192.6l-7.9,6.3c0.7,0.3,1.5,0.6,2.2,1c-0.1,0.2-0.1,0.4-0.1,0.5
		c0,0.2-0.1,0.4-0.1,0.6l-0.1,0.1c-0.7-0.5-1.5-0.9-2.4-1.4c-0.7-0.3-1.5-0.8-2.5-1.2v-0.2l9.5-7.6c0.1,0.2,0.2,0.3,0.3,0.4
		c0.2,0.3,0.4,0.6,0.5,0.6c0.2,0.2,0.3,0.4,0.5,0.5C57.6,192.4,57.8,192.5,57.8,192.6z"/>
	<path class="st2" d="M262.1,169c0.6,0.9,1.1,1.8,1.5,2.5c0.6,0.9,1.1,1.8,1.7,2.7c0.8,1.2,1.4,2.2,1.8,2.8
		c-0.1,0.1-0.2,0.2-0.3,0.3c-0.1,0.1-0.1,0.2-0.2,0.3c0,0.1-0.1,0.2-0.2,0.3c-0.1,0.2-0.1,0.3-0.2,0.4c-1.4-0.7-2.8-1.3-4.1-1.9
		c-2.2-1-3.4-1.6-3.7-1.7c-1-0.5-2.2-0.9-3.5-1.5c0.1-0.2,0.3-0.4,0.5-0.7s0.3-0.5,0.4-0.6c0.1-0.2,0.2-0.4,0.4-0.7
		c0.1-0.3,0.2-0.5,0.3-0.6c1,0.6,2.1,1.2,3.5,1.9s2.7,1.3,4,1.9c-0.5-0.9-1.1-1.7-1.6-2.6c-0.5-0.9-1.1-1.7-1.6-2.6
		c-0.4-0.6-0.9-1.4-1.7-2.6c0.1-0.2,0.2-0.3,0.3-0.3c0,0,0.1-0.1,0.1-0.2c0.9,0.1,1.9,0.2,2.8,0.3c1.2,0.1,2.2,0.2,3,0.3
		c1,0.1,2.1,0.2,3.1,0.3c-1.1-0.9-1.8-1.5-2.3-1.9c-0.8-0.6-1.5-1.2-2.2-1.7s-1.4-1-2-1.3c0.1-0.2,0.2-0.3,0.3-0.4
		c0.1-0.1,0.1-0.2,0.2-0.3c0.1-0.2,0.2-0.3,0.2-0.4c0-0.1,0.1-0.2,0.1-0.4c0.9,0.8,1.8,1.6,2.9,2.5c0.6,0.5,1.6,1.4,3.1,2.6
		c1.5,1.3,2.7,2.2,3.5,2.9c-0.1,0.1-0.2,0.2-0.3,0.3c-0.1,0.1-0.1,0.2-0.2,0.2c-0.1,0.1-0.2,0.3-0.2,0.4c0,0.1-0.1,0.2-0.1,0.3
		c-0.7-0.1-1.7-0.2-3.1-0.3c-1-0.1-2.1-0.2-3.1-0.3C264.2,169.2,263.2,169.1,262.1,169z M257.4,185.9l-7.4-4.6
		c0.2-0.2,0.3-0.4,0.4-0.6c0.1-0.2,0.2-0.3,0.3-0.4c0.1-0.2,0.3-0.4,0.3-0.6c0.1-0.2,0.1-0.3,0.2-0.4l1.1,0.7
		c-0.2-0.7-0.3-1.2-0.3-1.6c0-0.5,0.2-1,0.5-1.5c0.3-0.4,0.6-0.8,0.9-1c0.4-0.3,0.8-0.4,1.3-0.4c0.3,0,0.6,0,1,0.2
		c0.3,0.1,0.7,0.3,1,0.5l0.6,0.4l4.2,2.6c-0.1,0.2-0.3,0.3-0.4,0.5s-0.3,0.4-0.3,0.5c-0.1,0.2-0.3,0.4-0.3,0.6
		c-0.1,0.2-0.2,0.4-0.2,0.5l-4.2-2.6c-0.3-0.2-0.6-0.4-0.8-0.5s-0.4-0.1-0.6-0.2c-0.3-0.1-0.6,0-0.9,0c-0.2,0.1-0.4,0.3-0.6,0.5
		c-0.4,0.6-0.3,1.1,0.1,1.6c0.2,0.3,0.7,0.7,1.4,1.1l4,2.5c-0.1,0.2-0.3,0.3-0.4,0.5s-0.3,0.4-0.3,0.5c-0.1,0.2-0.3,0.4-0.3,0.6
		C257.5,185.6,257.5,185.7,257.4,185.9z M250.9,184.1l-0.2,0.4c-0.5-0.1-0.9-0.1-1.4,0.1c-0.4,0.2-0.8,0.4-1,0.9
		c-0.2,0.3-0.3,0.6-0.2,1c0,0.4,0.2,0.6,0.4,0.8c0.4,0.2,0.9,0.1,1.5-0.3c1.1-0.7,1.7-1.1,1.8-1.2c0.8-0.4,1.6-0.3,2.4,0.2
		c0.8,0.5,1.2,1.1,1.3,1.9c0.1,0.8,0,1.5-0.5,2.3c-0.2,0.4-0.5,0.7-0.9,1.1c-0.4,0.3-0.8,0.6-1.2,0.7l-1.1-1.2l0.3-0.4
		c0.4,0.2,0.8,0.2,1.2,0c0.4-0.1,0.7-0.3,1-0.7c0.2-0.3,0.3-0.6,0.3-0.9c0-0.3-0.2-0.6-0.4-0.7c-0.4-0.2-0.9-0.1-1.5,0.3
		c-1,0.7-1.6,1.2-1.8,1.3c-0.8,0.4-1.6,0.3-2.4-0.2c-0.7-0.4-1.2-1.1-1.3-1.9c-0.1-0.8,0.1-1.7,0.7-2.6c0.5-0.8,1.1-1.4,1.9-1.7
		L250.9,184.1z M245.1,189.2l7.4,4.6c-0.1,0.2-0.3,0.3-0.4,0.5c-0.1,0.2-0.3,0.4-0.3,0.5c-0.1,0.2-0.3,0.4-0.3,0.6
		c-0.1,0.2-0.2,0.4-0.2,0.5l-7.4-4.6c0.1-0.2,0.2-0.3,0.3-0.4c0.3-0.3,0.4-0.6,0.5-0.6c0.1-0.2,0.3-0.4,0.3-0.6
		C245,189.5,245.1,189.3,245.1,189.2z M255.4,195.3c0.3,0.2,0.5,0.5,0.6,0.9s0,0.7-0.2,1.1c-0.2,0.3-0.5,0.5-0.9,0.6s-0.7,0-1.1-0.2
		c-0.3-0.2-0.5-0.5-0.6-0.9s0-0.7,0.2-1.1c0.2-0.3,0.5-0.5,0.9-0.6C254.7,195.1,255.1,195.1,255.4,195.3z M245.5,203.9l-1.2-1.6
		l0.2-0.4c0.5,0.2,1,0.3,1.4,0.2c0.5-0.1,0.9-0.4,1.1-0.8c0.4-0.6,0.3-1.4-0.2-2.1c-0.4-0.6-0.9-1.1-1.7-1.6c-1-0.6-1.8-0.9-2.6-0.8
		c-0.8,0.1-1.4,0.5-1.9,1.3c-0.2,0.3-0.3,0.6-0.4,1c0,0.4,0,0.7,0.1,1l-0.4,0.1l-0.7-0.9c0-0.3,0-0.7,0.2-1.2s0.3-0.9,0.5-1.2
		c0.7-1.2,1.7-2,2.7-2.3c1.1-0.3,2.3-0.1,3.5,0.6c1.2,0.8,2,1.7,2.2,2.9c0.3,1.2,0,2.4-0.7,3.6c-0.3,0.5-0.6,0.9-1,1.3
		C246.4,203.4,245.9,203.7,245.5,203.9z M245.5,211.9l-3.6,5.8c-0.1-0.1-0.2-0.2-0.3-0.3s-0.2-0.2-0.3-0.2s-0.2-0.1-0.3-0.2
		c-0.2-0.1-0.3-0.1-0.4-0.2c0.4-0.5,0.8-1,1.2-1.5s0.8-1.1,1.2-1.9l-3.3-2l-1,1.6c-0.2,0.4-0.4,0.7-0.6,0.9c-0.1,0.2-0.3,0.6-0.5,1
		c-0.1-0.1-0.2-0.2-0.3-0.3s-0.2-0.2-0.3-0.2s-0.2-0.1-0.3-0.2c-0.2-0.1-0.3-0.1-0.4-0.2c0.2-0.2,0.4-0.5,0.7-0.9
		c0.3-0.3,0.5-0.6,0.6-0.9l1-1.6l-3.9-2.4c-0.4,0.7-0.8,1.4-1.1,1.9c-0.3,0.6-0.6,1.2-0.8,1.7c-0.1-0.1-0.2-0.2-0.3-0.3
		s-0.2-0.2-0.3-0.2s-0.2-0.1-0.3-0.2c-0.2-0.1-0.3-0.1-0.4-0.2l3.6-5.8L245.5,211.9z M236.9,219.1l-6.4-1.6c0.7,0.9,1.4,1.7,2,2.6
		c0.8,1,1.5,1.8,2.1,2.6l-0.4,0.6l-0.3,0.6c-0.1,0-0.1-0.1-0.2-0.2c-0.1-0.1-0.1-0.1-0.1-0.2c-0.2-0.3-0.5-0.7-0.8-1.2
		c-0.2-0.2-0.3-0.5-0.5-0.7c-0.6-0.9-1.3-1.7-1.9-2.6c-0.7-1-1.4-1.8-2.1-2.6c0.1-0.2,0.2-0.3,0.3-0.4c0.1-0.1,0.2-0.2,0.2-0.3
		c0.1-0.2,0.2-0.3,0.3-0.5c0.1-0.1,0.1-0.3,0.2-0.3c0.7,0.1,1.6,0.4,3,0.7c1.5,0.3,2.5,0.6,3,0.6c0.7,0.1,1.7,0.3,3.1,0.6
		c-0.1,0.2-0.3,0.4-0.5,0.6c-0.2,0.3-0.3,0.4-0.3,0.5c-0.1,0.2-0.2,0.3-0.2,0.4C237.1,218.7,236.9,219,236.9,219.1z M229.1,225.1
		l-1.4,2.3c0.6,0.4,1.2,0.6,1.6,0.8c0.7,0.2,1.2,0.1,1.4-0.3c0.3-0.5,0.2-1-0.3-1.6C230.2,225.8,229.7,225.4,229.1,225.1z
		 M225.7,229l2.7-4.4c-0.9-0.5-1.6-0.8-2.3-0.8c-0.8,0-1.4,0.4-1.9,1.2c-0.2,0.3-0.3,0.7-0.4,1c-0.1,0.4-0.1,0.8,0,1.2l-0.3,0.1
		l-0.6-0.9c-0.1-0.9,0.2-1.8,0.7-2.6c0.8-1.3,1.7-2,2.8-2.2s2.3,0.1,3.6,0.9c1.1,0.7,1.8,1.5,2.1,2.6s0.1,2.1-0.6,3.2
		c-0.7,1.1-1.6,1.7-2.6,1.8C227.9,230,226.8,229.7,225.7,229z M221.2,228l7.4,4.6c-0.1,0.2-0.3,0.3-0.4,0.5
		c-0.1,0.2-0.2,0.4-0.3,0.5c-0.1,0.2-0.2,0.4-0.3,0.6c-0.1,0.2-0.2,0.3-0.2,0.5l-1.1-0.7c0.2,0.6,0.3,1.1,0.3,1.6
		c0,0.6-0.2,1.1-0.4,1.5c-0.6,0.9-1.2,1.4-2,1.4c-0.7,0-1.5-0.3-2.5-0.9l-4.5-2.8c0.1-0.2,0.2-0.3,0.3-0.4c0.3-0.3,0.4-0.6,0.5-0.6
		c0.1-0.2,0.3-0.4,0.3-0.6c0.1-0.2,0.2-0.4,0.2-0.5l3.8,2.3c0.8,0.5,1.5,0.8,1.9,0.9c0.6,0.1,1-0.1,1.3-0.6c0.4-0.6,0.3-1.2-0.3-1.8
		c-0.3-0.4-0.9-0.8-1.6-1.2l-3.5-2.2c0.1-0.2,0.2-0.3,0.3-0.4c0.3-0.3,0.4-0.6,0.5-0.6c0.1-0.2,0.3-0.4,0.3-0.6
		C221,228.3,221.1,228.1,221.2,228z M220.8,243l-4.3-2.7c-0.5-0.3-0.9-0.5-1.1-0.5c-0.3,0-0.5,0.1-0.7,0.4c-0.1,0.2-0.2,0.4-0.3,0.7
		l-0.6-0.4c0.1-0.8,0.4-1.4,0.6-1.8c0.5-0.7,1-1.1,1.7-1.1c0.5,0,1.2,0.2,2,0.7l4.1,2.5l0.6-1c0.1,0.1,0.2,0.1,0.3,0.2
		c0.1,0.1,0.2,0.1,0.2,0.1l0.2,0.1c0.1,0,0.1,0.1,0.2,0.1c0.1,0,0.1,0,0.2,0.1l-0.6,1l1.7,1.1c-0.1,0.3-0.1,0.7-0.2,1.3
		c-0.1,0.5-0.1,1-0.2,1.4l-2.7-1.6l-0.8,1.3c-0.1-0.1-0.2-0.1-0.3-0.2c-0.1-0.1-0.2-0.1-0.2-0.1c-0.1,0-0.2-0.1-0.2-0.1
		c-0.1-0.1-0.2-0.1-0.3-0.1L220.8,243z M233.2,173.3l-4.6-2.8c0.1-0.2,0.2-0.3,0.3-0.4c0.3-0.4,0.5-0.6,0.5-0.7
		c0.1-0.2,0.2-0.4,0.4-0.7c0.1-0.3,0.2-0.5,0.2-0.5l10.5,6.5l-2.3,3.8c-1.3,2.2-2.9,2.7-4.6,1.7c-1.3-0.8-1.9-1.8-1.9-3
		C231.7,176.1,232.2,174.9,233.2,173.3z M238.2,176.4l-4.2-2.6c-0.1,0.2-0.2,0.4-0.3,0.5s-0.1,0.3-0.2,0.5c-0.2,0.5-0.1,1.1,0.1,1.5
		c0.2,0.4,0.6,0.8,1.1,1.1c0.6,0.4,1.2,0.5,1.7,0.5c0.6,0,1-0.2,1.2-0.6L238.2,176.4z M225.1,181.6l1.5,0.9c0.1-0.4,0.1-0.7,0.2-0.9
		c0.1-0.4,0.1-0.8,0.1-1c0-0.3-0.1-0.5-0.3-0.7s-0.4-0.4-0.7-0.6c-0.3-0.2-0.7-0.3-1-0.4c-0.3,0-0.6,0.1-0.8,0.4
		c-0.3,0.4-0.3,0.8,0,1.3C224.4,181,224.7,181.3,225.1,181.6z M226.8,185.6l-4.2-2.6c-0.3-0.2-0.5-0.2-0.7-0.2
		c-0.2,0.1-0.3,0.2-0.5,0.5l-0.4-0.2c0-0.3,0.1-0.5,0.2-0.9c0.1-0.3,0.2-0.6,0.3-0.8c0.2-0.3,0.5-0.6,0.9-0.8
		c0.4-0.1,0.8-0.2,1.2-0.1c-0.2-0.4-0.3-0.9-0.3-1.3c0-0.5,0.2-0.9,0.4-1.3c0.4-0.7,0.9-1.1,1.5-1.2c0.6-0.2,1.3-0.1,1.9,0.3
		c0.7,0.4,1.1,1,1.1,1.6c0,0.5-0.1,1.4-0.5,2.6c-0.1,0.3-0.1,0.5-0.2,0.7c-0.1,0.3-0.1,0.5-0.1,0.7c0,0.1,0.1,0.2,0.2,0.3
		c0.1,0.1,0.2,0.2,0.3,0.3c0.4,0.2,0.8,0.3,1.2,0.1c0.5-0.1,0.8-0.4,1-0.7c0.3-0.4,0.4-0.9,0.4-1.5c0-0.5-0.1-0.8-0.2-1l0.1-0.1
		l1,0.4c0.1,0.5,0.1,1.1,0,1.7c-0.1,0.6-0.4,1.2-0.7,1.7c-0.5,0.8-1,1.3-1.6,1.7C228.3,186,227.5,186,226.8,185.6z M222.2,185.1
		l-0.2,0.4c-0.5-0.1-0.9-0.1-1.4,0.1s-0.8,0.4-1,0.9c-0.2,0.3-0.3,0.6-0.2,1c0,0.4,0.2,0.6,0.4,0.8c0.4,0.2,0.9,0.1,1.5-0.3
		c1.1-0.7,1.7-1.1,1.8-1.2c0.8-0.4,1.6-0.3,2.4,0.2c0.8,0.5,1.2,1.1,1.3,1.9c0.1,0.8,0,1.5-0.5,2.3c-0.2,0.4-0.5,0.7-0.9,1.1
		c-0.4,0.3-0.8,0.6-1.2,0.7l-1.1-1.2l0.3-0.4c0.4,0.2,0.8,0.2,1.2,0c0.4-0.1,0.7-0.3,1-0.7c0.2-0.3,0.3-0.6,0.3-0.9
		c0-0.3-0.2-0.6-0.4-0.7c-0.4-0.2-0.9-0.1-1.5,0.3c-1,0.7-1.6,1.2-1.8,1.3c-0.8,0.4-1.6,0.3-2.4-0.2c-0.7-0.4-1.1-1.1-1.3-1.9
		c-0.1-0.8,0.1-1.7,0.7-2.6c0.5-0.8,1.1-1.4,1.9-1.7L222.2,185.1z M218.5,191l-0.2,0.4c-0.5-0.1-0.9-0.1-1.4,0.1
		c-0.4,0.2-0.8,0.4-1,0.9c-0.2,0.3-0.3,0.6-0.2,1c0,0.4,0.2,0.6,0.4,0.8c0.4,0.2,0.9,0.1,1.5-0.3c1.1-0.7,1.7-1.1,1.8-1.2
		c0.8-0.3,1.6-0.3,2.4,0.2c0.8,0.5,1.2,1.1,1.3,1.9c0.1,0.8,0,1.5-0.5,2.3c-0.2,0.4-0.5,0.7-0.9,1.1c-0.4,0.3-0.8,0.6-1.2,0.7
		l-1.1-1.2l0.3-0.4c0.4,0.2,0.8,0.2,1.2,0c0.4-0.1,0.7-0.3,1-0.7c0.2-0.3,0.3-0.6,0.3-0.9c0-0.3-0.2-0.6-0.4-0.7
		c-0.4-0.2-0.9-0.1-1.5,0.3c-1,0.7-1.6,1.2-1.8,1.3c-0.8,0.4-1.6,0.3-2.4-0.2c-0.7-0.4-1.1-1.1-1.3-1.9c-0.1-0.8,0.1-1.7,0.7-2.6
		c0.5-0.8,1.1-1.4,1.9-1.7L218.5,191z M216.1,200.6l-1.4,2.3c0.6,0.4,1.2,0.6,1.6,0.8c0.7,0.2,1.2,0.1,1.4-0.3
		c0.3-0.5,0.2-1-0.3-1.6C217.1,201.4,216.7,201,216.1,200.6z M212.6,204.5l2.7-4.4c-0.9-0.5-1.6-0.8-2.3-0.8c-0.8,0-1.4,0.4-1.9,1.2
		c-0.2,0.3-0.3,0.7-0.4,1c-0.1,0.4-0.1,0.8,0,1.2l-0.3,0.1l-0.6-0.9c-0.1-0.9,0.2-1.8,0.7-2.6c0.8-1.3,1.7-2,2.8-2.2
		s2.3,0.1,3.6,0.9c1.1,0.7,1.8,1.5,2.1,2.6s0.1,2.1-0.6,3.2c-0.7,1.1-1.6,1.7-2.6,1.8C214.9,205.6,213.8,205.2,212.6,204.5z
		 M210.2,204.6L210,205c-0.5-0.1-0.9-0.1-1.4,0.1c-0.4,0.2-0.8,0.4-1,0.9c-0.2,0.3-0.3,0.6-0.2,1c0,0.4,0.2,0.6,0.4,0.8
		c0.4,0.2,0.9,0.1,1.5-0.3c1.1-0.7,1.7-1.1,1.8-1.2c0.8-0.4,1.6-0.3,2.4,0.2c0.8,0.5,1.2,1.1,1.3,1.9c0.1,0.8,0,1.5-0.5,2.3
		c-0.2,0.4-0.5,0.7-0.9,1.1c-0.4,0.3-0.8,0.6-1.2,0.7l-1.1-1.2l0.3-0.4c0.4,0.2,0.8,0.2,1.2,0c0.4-0.1,0.7-0.3,1-0.7
		c0.2-0.3,0.3-0.6,0.3-0.9c0-0.3-0.2-0.6-0.4-0.7c-0.4-0.2-0.9-0.1-1.5,0.3c-1,0.7-1.6,1.2-1.8,1.3c-0.8,0.4-1.6,0.3-2.4-0.2
		c-0.7-0.4-1.1-1.1-1.3-1.9c-0.1-0.8,0.1-1.7,0.7-2.6c0.5-0.8,1.1-1.4,1.9-1.7L210.2,204.6z"/>
	<path class="st2" d="M37.2,124.3l4.4,2.2c-0.2,1-0.4,1.8-0.6,2.5c-0.2,0.7-0.5,1.4-0.8,2.1c-0.9,1.8-2.1,3.1-3.6,3.8
		c-1.6,0.8-3.3,0.7-5.1-0.2c-1.9-1-3.1-2.4-3.5-4.2c-0.4-1.7-0.1-3.5,0.9-5.5c0.4-0.7,0.8-1.3,1.3-1.9s1-1,1.7-1.5
		c0.4,0.5,0.9,0.9,1.4,1.3l-0.1,0.2c-0.7,0.1-1.3,0.4-1.9,0.8s-1,0.9-1.3,1.6c-0.6,1.3-0.6,2.5,0,3.8c0.6,1.1,1.6,2.1,3.1,2.8
		c1.4,0.7,2.6,0.9,3.8,0.6c1.1-0.3,2-1,2.6-2.2c0.2-0.4,0.3-0.7,0.4-1c0.1-0.3,0.1-0.6,0.1-1l-3.7-1.9c0.1-0.2,0.2-0.4,0.4-0.7
		c0.2-0.3,0.3-0.4,0.3-0.5c0.1-0.2,0.2-0.3,0.2-0.5C37.1,124.6,37.2,124.3,37.2,124.3z M39.5,120.4l1.2-2.4
		c-0.7-0.3-1.2-0.5-1.7-0.6c-0.7-0.2-1.2,0-1.4,0.4c-0.3,0.5-0.1,1,0.4,1.6C38.4,119.7,38.9,120.1,39.5,120.4z M42.6,116.2l-2.3,4.6
		c0.9,0.5,1.7,0.7,2.3,0.6c0.8-0.1,1.3-0.5,1.8-1.3c0.2-0.3,0.3-0.7,0.3-1.1s0-0.8-0.1-1.2l0.2-0.1l0.7,0.8c0.1,0.9,0,1.8-0.4,2.7
		c-0.7,1.3-1.5,2.1-2.6,2.4s-2.3,0.1-3.6-0.5c-1.1-0.6-1.9-1.4-2.3-2.4c-0.4-1-0.3-2.1,0.3-3.2c0.6-1.2,1.4-1.8,2.5-2
		C40.3,115.3,41.4,115.6,42.6,116.2z M41.8,110.7l4.6,2.3c0.5,0.3,0.9,0.4,1.2,0.4s0.5-0.2,0.7-0.5c0.1-0.2,0.2-0.5,0.2-0.8l0.6,0.3
		c-0.1,0.8-0.2,1.4-0.5,1.9c-0.4,0.8-0.9,1.2-1.6,1.3c-0.5,0.1-1.2-0.1-2.1-0.5l-4.3-2.2L40,114c-0.1-0.1-0.2-0.1-0.3-0.2
		c-0.1,0-0.2-0.1-0.2-0.1l-0.2-0.1c-0.1,0-0.1-0.1-0.2-0.1c-0.1,0-0.1,0-0.2-0.1l0.6-1.1l-1.8-0.9c0-0.3,0.1-0.7,0.1-1.3
		c0-0.5,0-1,0-1.4l2.8,1.4l0.7-1.4c0.1,0.1,0.2,0.1,0.3,0.2c0.1,0,0.2,0.1,0.2,0.1c0.1,0,0.2,0.1,0.2,0.1c0.1,0,0.2,0.1,0.3,0.1
		L41.8,110.7z M52.5,94l4.4,2.2c-0.2,1-0.4,1.8-0.6,2.5c-0.2,0.7-0.5,1.4-0.8,2.1c-0.9,1.8-2.1,3.1-3.6,3.8
		c-1.6,0.8-3.3,0.7-5.1-0.2c-1.9-1-3.1-2.4-3.5-4.2c-0.4-1.7-0.1-3.5,0.9-5.5c0.4-0.7,0.8-1.3,1.3-1.9s1-1,1.7-1.5
		c0.4,0.5,0.9,0.9,1.4,1.3L48.3,93c-0.7,0.1-1.3,0.4-1.9,0.8c-0.6,0.4-1,0.9-1.3,1.6c-0.6,1.3-0.6,2.5,0,3.8
		c0.6,1.1,1.6,2.1,3.1,2.8c1.4,0.7,2.6,0.9,3.8,0.6c1.1-0.3,2-1,2.6-2.2c0.2-0.4,0.3-0.7,0.4-1c0.1-0.3,0.1-0.6,0.1-1l-3.7-1.9
		c0.1-0.2,0.2-0.4,0.4-0.7c0.2-0.3,0.3-0.4,0.3-0.5c0.1-0.2,0.2-0.3,0.2-0.5C52.4,94.3,52.5,94.1,52.5,94z M58.5,94.3l-7.8-3.9
		c0.1-0.2,0.2-0.4,0.4-0.6c0.1-0.2,0.2-0.4,0.3-0.5c0.1-0.2,0.2-0.5,0.3-0.7s0.1-0.4,0.2-0.5l2,1c-0.6-0.5-0.9-1.1-1.1-1.6
		c-0.2-0.7-0.1-1.4,0.3-2.1c0.3,0.2,0.6,0.4,1,0.6s0.8,0.4,1.1,0.6l0.1,0.2c-0.1,0.1-0.2,0.2-0.3,0.3c-0.1,0.1-0.2,0.3-0.3,0.4
		c-0.2,0.4-0.2,0.7-0.2,1.1c0.1,0.3,0.2,0.7,0.5,0.9c0.1,0.1,0.2,0.2,0.4,0.3c0.2,0.1,0.4,0.2,0.7,0.4l0.7,0.3l2.9,1.5
		c-0.1,0.2-0.2,0.3-0.2,0.4c-0.2,0.4-0.4,0.6-0.4,0.7c-0.1,0.2-0.2,0.5-0.3,0.7C58.7,94,58.6,94.2,58.5,94.3z M60.9,83.1l-1.6-0.8
		c0,0.4-0.1,0.7-0.1,0.9c-0.1,0.4,0,0.8,0,1c0.1,0.3,0.2,0.5,0.3,0.7c0.2,0.2,0.4,0.3,0.7,0.5c0.4,0.2,0.7,0.3,1,0.3
		s0.6-0.2,0.7-0.5c0.2-0.4,0.2-0.9-0.1-1.3C61.7,83.6,61.4,83.4,60.9,83.1z M58.9,79.3l4.4,2.2c0.3,0.2,0.5,0.2,0.7,0.1
		s0.3-0.3,0.5-0.6l0.4,0.2c0,0.3,0,0.5-0.1,0.9c0,0.3-0.1,0.6-0.2,0.8c-0.2,0.4-0.4,0.6-0.8,0.8c-0.4,0.2-0.7,0.2-1.2,0.2
		c0.3,0.4,0.4,0.8,0.4,1.3s-0.1,0.9-0.3,1.3c-0.3,0.7-0.8,1.1-1.4,1.4c-0.6,0.2-1.2,0.2-1.9-0.1c-0.7-0.4-1.1-0.9-1.3-1.5
		c-0.1-0.5,0-1.4,0.3-2.6c0.1-0.3,0.1-0.5,0.1-0.7c0-0.3,0.1-0.5,0-0.7c0-0.1-0.1-0.2-0.2-0.3c-0.1-0.1-0.2-0.2-0.3-0.2
		c-0.4-0.2-0.8-0.2-1.2,0s-0.8,0.4-1,0.8c-0.2,0.5-0.3,1-0.3,1.5s0.1,0.8,0.3,0.9l-0.1,0.1l-1.1-0.3c-0.2-0.5-0.2-1.1-0.1-1.7
		c0.1-0.6,0.3-1.2,0.5-1.8c0.4-0.8,0.9-1.4,1.5-1.8C57.4,79,58.1,79,58.9,79.3z M65.6,80.3l-7.8-3.9c0.1-0.2,0.2-0.3,0.4-0.5
		c0.1-0.2,0.2-0.4,0.3-0.5c0.1-0.2,0.2-0.4,0.3-0.6s0.1-0.3,0.2-0.5l1.2,0.6c-0.2-0.6-0.4-1.1-0.4-1.6c0-0.6,0.1-1.1,0.3-1.6
		c0.5-0.9,1.1-1.5,1.9-1.6c0.7-0.1,1.5,0.1,2.6,0.7l4.7,2.4c-0.1,0.2-0.2,0.3-0.2,0.4c-0.2,0.4-0.4,0.6-0.4,0.7
		c-0.1,0.2-0.2,0.5-0.3,0.7c-0.1,0.2-0.1,0.4-0.2,0.5l-4-2c-0.9-0.4-1.5-0.7-2-0.7c-0.6,0-1,0.2-1.3,0.7c-0.3,0.6-0.2,1.2,0.4,1.8
		c0.3,0.3,0.9,0.7,1.7,1.1l3.7,1.9c-0.1,0.2-0.2,0.3-0.2,0.4c-0.2,0.4-0.4,0.6-0.4,0.7c-0.1,0.2-0.2,0.5-0.3,0.7
		C65.7,80,65.7,80.2,65.6,80.3z M64.7,65.3l4.6,2.3c0.5,0.3,0.9,0.4,1.2,0.4c0.3,0,0.5-0.2,0.7-0.5c0.1-0.2,0.2-0.5,0.2-0.8L72,67
		c-0.1,0.8-0.2,1.4-0.5,1.9c-0.4,0.8-0.9,1.2-1.6,1.3c-0.5,0.1-1.2-0.1-2.1-0.5l-4.3-2.2l-0.6,1.1c-0.1-0.1-0.2-0.1-0.3-0.2
		c-0.1,0-0.2-0.1-0.2-0.1l-0.2-0.1c-0.1,0-0.1-0.1-0.2-0.1c-0.1,0-0.1,0-0.2-0.1l0.6-1.1L60.6,66c0-0.3,0.1-0.7,0.1-1.3s0-1,0-1.4
		l2.8,1.4l0.7-1.4c0.1,0.1,0.2,0.1,0.3,0.2c0.1,0,0.2,0.1,0.2,0.1c0.1,0,0.2,0.1,0.2,0.1c0.1,0,0.2,0.1,0.3,0.1L64.7,65.3z
		 M66.5,63.2L63.9,61c-0.2-0.2-0.4-0.4-0.7-0.6c-0.2-0.2-0.4-0.4-0.7-0.7c-0.2-0.3-0.3-0.5-0.4-0.7c0-0.2,0-0.5,0.1-0.7
		c0.2-0.3,0.4-0.5,0.7-0.6s0.6-0.1,0.9,0c0.2,0.1,0.3,0.2,0.4,0.4c0.4,0.8,0.9,1.5,1.3,2.3c0.2,0.3,0.6,1.1,1.2,2.4L66.5,63.2z
		 M73,60.7l0.2-0.4c0.5,0.1,0.9,0,1.3-0.2s0.7-0.5,0.9-0.9c0.2-0.3,0.2-0.6,0.1-1s-0.2-0.6-0.5-0.8c-0.4-0.2-0.9-0.1-1.5,0.4
		c-1,0.8-1.6,1.3-1.7,1.4c-0.8,0.4-1.6,0.4-2.4,0s-1.3-1-1.5-1.7c-0.2-0.8-0.1-1.5,0.3-2.3c0.2-0.4,0.5-0.8,0.8-1.1
		c0.3-0.4,0.7-0.6,1.1-0.8l1.2,1.1l-0.2,0.4c-0.4-0.1-0.8-0.1-1.2,0.1c-0.4,0.2-0.7,0.4-0.9,0.8c0,0.3,0,0.6,0,0.9s0.2,0.5,0.5,0.7
		c0.4,0.2,0.9,0,1.5-0.5c0.9-0.8,1.5-1.3,1.7-1.4c0.8-0.4,1.6-0.4,2.4,0s1.2,1,1.4,1.8c0.2,0.8,0,1.7-0.4,2.6
		c-0.4,0.8-1,1.5-1.8,1.9L73,60.7z M54.3,130.8l3.8,1.9l0.3-0.5c0.2-0.3,0.3-0.6,0.3-0.8c0.1-0.2,0-0.5,0-0.8
		c-0.1-0.3-0.2-0.6-0.5-0.9c-0.2-0.3-0.5-0.5-0.8-0.6c-0.6-0.3-1.1-0.4-1.5-0.2c-0.5,0.1-0.8,0.5-1.1,1
		C54.5,130.2,54.4,130.5,54.3,130.8z M59,133.2l4.3,2.2l0.4-0.8c0.2-0.5,0.3-1,0.1-1.6s-0.6-1-1.2-1.4c-0.8-0.4-1.5-0.5-2.1-0.2
		S59.4,132.3,59,133.2z M63,138.3l-10.9-5.5l2.1-4.1c0.5-0.9,1-1.6,1.6-1.9c0.7-0.5,1.5-0.5,2.4,0c0.7,0.4,1.2,0.9,1.4,1.7
		c0.2,0.7,0.1,1.4-0.1,2.2l0.1,0.1c0.5-0.7,1-1.3,1.6-1.6c0.8-0.4,1.7-0.4,2.5,0c1,0.5,1.6,1.3,1.8,2.4c0.1,1-0.1,2-0.6,3L63,138.3z
		 M68,128.7l-7.8-3.9c0.1-0.2,0.2-0.4,0.4-0.6c0.1-0.2,0.2-0.4,0.3-0.5c0.1-0.2,0.2-0.5,0.3-0.7s0.1-0.4,0.2-0.5l2,1
		c-0.6-0.5-0.9-1.1-1.1-1.6c-0.2-0.7-0.1-1.4,0.3-2.1c0.3,0.2,0.6,0.4,1,0.6c0.4,0.2,0.8,0.4,1.1,0.6l0.1,0.2
		c-0.1,0.1-0.2,0.2-0.3,0.3c-0.1,0.1-0.2,0.3-0.3,0.4c-0.2,0.4-0.2,0.7-0.2,1.1c0.1,0.3,0.2,0.7,0.5,0.9c0.1,0.1,0.2,0.2,0.4,0.3
		c0.2,0.1,0.4,0.2,0.7,0.4l0.7,0.3l2.9,1.5c-0.1,0.2-0.2,0.3-0.2,0.4c-0.2,0.4-0.4,0.6-0.4,0.7c-0.1,0.2-0.2,0.5-0.3,0.7
		C68.1,128.4,68,128.6,68,128.7z M70.3,117.5l-1.6-0.8c0,0.4-0.1,0.7-0.1,0.9c-0.1,0.4,0,0.8,0,1c0.1,0.3,0.2,0.5,0.3,0.7
		c0.2,0.2,0.4,0.3,0.7,0.5c0.4,0.2,0.7,0.3,1,0.3s0.6-0.2,0.7-0.5c0.2-0.4,0.2-0.9-0.1-1.3C71.2,118,70.8,117.7,70.3,117.5z
		 M68.3,113.7l4.4,2.2c0.3,0.2,0.5,0.2,0.7,0.1s0.3-0.3,0.5-0.6l0.4,0.2c0,0.3,0,0.5-0.1,0.9c0,0.3-0.1,0.6-0.2,0.8
		c-0.2,0.4-0.4,0.6-0.8,0.8c-0.4,0.2-0.7,0.2-1.2,0.2c0.3,0.4,0.4,0.8,0.4,1.3s-0.1,0.9-0.3,1.3c-0.3,0.7-0.8,1.1-1.4,1.4
		c-0.6,0.2-1.2,0.2-1.9-0.1c-0.7-0.4-1.1-0.9-1.3-1.5c-0.1-0.5,0-1.4,0.3-2.6c0.1-0.3,0.1-0.5,0.1-0.7c0-0.3,0.1-0.5,0-0.7
		c0-0.1-0.1-0.2-0.2-0.3c-0.1-0.1-0.2-0.2-0.3-0.2c-0.4-0.2-0.8-0.2-1.2,0c-0.4,0.2-0.8,0.4-1,0.8c-0.2,0.5-0.3,1-0.3,1.5
		s0.1,0.8,0.3,0.9l-0.1,0.1l-1.1-0.3c-0.2-0.5-0.2-1.1-0.1-1.7c0.1-0.6,0.3-1.2,0.5-1.8c0.4-0.8,0.9-1.4,1.5-1.8
		C66.8,113.4,67.6,113.3,68.3,113.7z M75.1,114.7l-7.8-3.9c0.1-0.2,0.2-0.3,0.4-0.5c0.1-0.2,0.2-0.4,0.3-0.5
		c0.1-0.2,0.2-0.4,0.3-0.6c0.1-0.2,0.1-0.3,0.2-0.5l1.2,0.6c-0.2-0.6-0.4-1.1-0.4-1.6c0-0.6,0.1-1.1,0.3-1.6
		c0.5-0.9,1.1-1.5,1.9-1.6c0.7-0.1,1.5,0.1,2.6,0.7l4.7,2.4c-0.1,0.2-0.2,0.3-0.2,0.4c-0.2,0.4-0.4,0.6-0.4,0.7
		c-0.1,0.2-0.2,0.5-0.3,0.7c-0.1,0.2-0.1,0.4-0.2,0.5l-4-2c-0.9-0.4-1.5-0.7-2-0.7c-0.6,0-1,0.2-1.3,0.7c-0.3,0.6-0.2,1.2,0.4,1.8
		c0.3,0.3,0.9,0.7,1.7,1.1l3.7,1.9c-0.1,0.2-0.2,0.3-0.2,0.4c-0.2,0.4-0.4,0.6-0.4,0.7c-0.1,0.2-0.2,0.5-0.3,0.7
		C75.2,114.4,75.1,114.6,75.1,114.7z M71,92.5l12.2,6.2c-0.1,0.2-0.3,0.4-0.4,0.6s-0.2,0.3-0.2,0.4c-0.1,0.2-0.2,0.5-0.3,0.7
		c-0.1,0.2-0.1,0.3-0.2,0.5l-1.4-0.7c0.8,0.9,1,1.9,0.4,3s-1.4,1.7-2.5,1.8c-0.9,0.1-2-0.1-3.1-0.7s-1.9-1.3-2.4-2.2
		c-0.6-1-0.6-2-0.1-3c0.3-0.5,0.6-0.9,0.9-1.2c0.4-0.3,0.8-0.4,1.3-0.4l-5.4-2.7c0.1-0.2,0.2-0.4,0.4-0.6c0.1-0.2,0.2-0.4,0.3-0.5
		c0.1-0.2,0.2-0.5,0.3-0.7C70.9,92.8,70.9,92.7,71,92.5z M74.5,98.8c-0.3,0.6-0.1,1.2,0.5,1.9c0.4,0.4,1,0.8,1.8,1.2
		c0.8,0.4,1.4,0.6,1.9,0.7c0.9,0.1,1.4-0.1,1.7-0.6c0.3-0.6,0.1-1.2-0.5-1.9c-0.4-0.4-1-0.8-1.8-1.2c-0.7-0.4-1.4-0.6-1.9-0.7
		C75.3,98,74.8,98.2,74.5,98.8z M80.4,92.5l1.2-2.4c-0.7-0.3-1.2-0.5-1.7-0.6c-0.7-0.2-1.2,0-1.4,0.4c-0.3,0.5-0.1,1,0.4,1.6
		C79.3,91.8,79.8,92.2,80.4,92.5z M83.5,88.3l-2.3,4.6c0.9,0.5,1.7,0.7,2.3,0.6c0.8-0.1,1.3-0.5,1.8-1.3c0.2-0.3,0.3-0.7,0.3-1.1
		s0-0.8-0.1-1.2l0.2-0.1l0.7,0.8c0.1,0.9,0,1.8-0.4,2.7c-0.7,1.3-1.5,2.1-2.6,2.4s-2.3,0.1-3.6-0.5c-1.1-0.6-1.9-1.4-2.3-2.4
		s-0.3-2.1,0.3-3.2c0.6-1.2,1.4-1.8,2.5-2C81.2,87.4,82.3,87.7,83.5,88.3z M79.5,75.6l12.2,6.2c-0.1,0.2-0.3,0.4-0.4,0.6
		s-0.2,0.3-0.2,0.4c-0.1,0.2-0.2,0.5-0.3,0.7c-0.1,0.2-0.1,0.3-0.2,0.5l-1.4-0.7c0.8,0.9,1,1.9,0.4,3s-1.4,1.7-2.5,1.8
		c-0.9,0.1-2-0.1-3.1-0.7s-1.9-1.3-2.4-2.2c-0.6-1-0.6-2-0.1-3c0.3-0.5,0.6-0.9,0.9-1.2c0.4-0.3,0.8-0.4,1.3-0.4l-5.4-2.7
		c0.1-0.2,0.2-0.4,0.4-0.6c0.1-0.2,0.2-0.4,0.3-0.5c0.1-0.2,0.2-0.5,0.3-0.7C79.4,75.9,79.5,75.8,79.5,75.6z M83,81.9
		c-0.3,0.6-0.1,1.2,0.5,1.9c0.4,0.4,1,0.8,1.8,1.2c0.8,0.4,1.4,0.6,1.9,0.7c0.9,0.1,1.4-0.1,1.7-0.6c0.3-0.6,0.1-1.2-0.5-1.9
		c-0.4-0.4-1-0.8-1.8-1.2c-0.7-0.4-1.4-0.6-1.9-0.7C83.9,81.1,83.3,81.3,83,81.9z M87.5,130.8L92,133c-0.2,1-0.4,1.8-0.6,2.5
		s-0.5,1.4-0.8,2.1c-0.9,1.8-2.1,3.1-3.6,3.8c-1.6,0.8-3.3,0.7-5.1-0.2c-1.9-1-3.1-2.4-3.5-4.2c-0.4-1.7-0.1-3.5,0.9-5.5
		c0.4-0.7,0.8-1.3,1.3-1.9c0.5-0.6,1-1,1.7-1.5c0.4,0.5,0.9,0.9,1.4,1.3l-0.1,0.2c-0.7,0.1-1.3,0.4-1.9,0.8c-0.6,0.4-1,0.9-1.3,1.6
		c-0.6,1.3-0.6,2.5,0,3.8c0.6,1.1,1.6,2.1,3.1,2.8c1.4,0.7,2.6,0.9,3.8,0.6c1.1-0.3,2-1,2.6-2.2c0.2-0.4,0.3-0.7,0.4-1
		s0.1-0.6,0.1-1l-3.7-1.9c0.1-0.2,0.2-0.4,0.4-0.7c0.2-0.3,0.3-0.4,0.3-0.5c0.1-0.2,0.2-0.3,0.2-0.5
		C87.4,131.1,87.5,130.8,87.5,130.8z M95.4,127.8c-0.6,1.2-1.4,2-2.5,2.3c-1,0.4-2.2,0.2-3.4-0.4c-1.3-0.6-2.1-1.5-2.5-2.6
		s-0.3-2.2,0.3-3.5c0.6-1.2,1.4-2,2.5-2.4c1-0.4,2.2-0.2,3.4,0.4c1.2,0.6,2.1,1.5,2.5,2.5C96.1,125.4,96,126.6,95.4,127.8z
		 M88.1,124c-0.3,0.6-0.2,1.2,0.3,1.8c0.5,0.5,1.2,1,2.3,1.6c0.8,0.4,1.5,0.7,2.1,0.8c0.9,0.2,1.6-0.1,1.9-0.7
		c0.3-0.6,0.1-1.2-0.6-1.9c-0.5-0.6-1.3-1.1-2.4-1.6c-0.9-0.4-1.6-0.7-2.2-0.7C88.9,123.2,88.4,123.4,88.1,124z M99.9,118.9
		c-0.6,1.2-1.4,2-2.5,2.3c-1.1,0.4-2.2,0.2-3.4-0.4c-1.3-0.6-2.1-1.5-2.5-2.6s-0.3-2.2,0.3-3.5c0.6-1.2,1.4-2,2.5-2.4
		c1-0.4,2.2-0.2,3.4,0.4c1.2,0.6,2.1,1.5,2.5,2.5C100.6,116.5,100.5,117.7,99.9,118.9z M92.6,115.1c-0.3,0.6-0.2,1.2,0.3,1.8
		c0.5,0.5,1.2,1,2.3,1.6c0.8,0.4,1.5,0.7,2.1,0.8c0.9,0.2,1.6-0.1,1.9-0.7s0.1-1.2-0.6-1.9c-0.5-0.6-1.3-1.1-2.4-1.6
		c-0.9-0.4-1.6-0.7-2.2-0.7C93.4,114.3,92.9,114.6,92.6,115.1z M93.9,100.2l12.2,6.2c-0.1,0.2-0.3,0.4-0.4,0.6s-0.2,0.3-0.2,0.4
		c-0.1,0.2-0.2,0.5-0.3,0.7c-0.1,0.2-0.1,0.3-0.2,0.5l-1.4-0.7c0.8,0.9,1,1.9,0.4,3s-1.4,1.7-2.5,1.8c-0.9,0.1-2-0.1-3.1-0.7
		s-1.9-1.3-2.4-2.2c-0.6-1-0.6-2-0.1-3c0.3-0.5,0.6-0.9,0.9-1.2c0.4-0.3,0.8-0.4,1.3-0.4l-5.4-2.7c0.1-0.2,0.2-0.4,0.4-0.6
		c0.1-0.2,0.2-0.4,0.3-0.5c0.1-0.2,0.2-0.5,0.3-0.7C93.8,100.5,93.8,100.3,93.9,100.2z M97.4,106.5c-0.3,0.6-0.1,1.2,0.5,1.9
		c0.4,0.4,1,0.8,1.8,1.2c0.8,0.4,1.4,0.6,1.9,0.7c0.9,0.1,1.4-0.1,1.7-0.6c0.3-0.6,0.1-1.2-0.5-1.9c-0.4-0.4-1-0.8-1.8-1.2
		c-0.7-0.4-1.4-0.6-1.9-0.7C98.2,105.7,97.7,105.9,97.4,106.5z M107.1,104.3l-7.8-3.9c0.1-0.2,0.2-0.4,0.4-0.6
		c0.1-0.2,0.2-0.4,0.3-0.5c0.1-0.2,0.2-0.5,0.3-0.7c0.1-0.2,0.1-0.4,0.2-0.5l7.8,3.9c-0.1,0.2-0.2,0.3-0.2,0.4
		c-0.2,0.4-0.4,0.6-0.4,0.7c-0.1,0.2-0.2,0.5-0.3,0.7C107.2,104,107.1,104.2,107.1,104.3z M96.3,99.1c-0.3-0.2-0.6-0.4-0.7-0.8
		s-0.1-0.7,0.1-1.1c0.2-0.3,0.4-0.6,0.8-0.7s0.7-0.1,1.1,0.1c0.3,0.2,0.6,0.5,0.7,0.8c0.1,0.4,0.1,0.7-0.1,1.1s-0.5,0.6-0.8,0.7
		C97,99.3,96.7,99.2,96.3,99.1z M105.6,95.7l1.2-2.4c-0.7-0.3-1.2-0.5-1.7-0.6c-0.7-0.2-1.2,0-1.4,0.4c-0.3,0.5-0.1,1,0.4,1.6
		C104.5,95,105,95.4,105.6,95.7z M108.7,91.5l-2.3,4.6c0.9,0.5,1.7,0.7,2.3,0.6c0.8-0.1,1.3-0.5,1.8-1.3c0.2-0.3,0.3-0.7,0.3-1.1
		s0-0.8-0.1-1.2L111,93l0.7,0.8c0.1,0.9,0,1.8-0.4,2.7c-0.7,1.3-1.5,2.1-2.6,2.4s-2.3,0.1-3.6-0.5c-1.1-0.6-1.9-1.4-2.3-2.4
		s-0.3-2.1,0.3-3.2c0.6-1.2,1.4-1.8,2.5-2C106.4,90.6,107.5,90.9,108.7,91.5z"/>
	<path class="st2" d="M247.9,83.8l-9.4,5.7c-0.1-0.2-0.2-0.3-0.2-0.4c-0.2-0.5-0.4-0.7-0.4-0.8c-0.1-0.2-0.3-0.4-0.4-0.7
		c-0.2-0.3-0.3-0.4-0.3-0.4l9.4-5.7c-0.3-0.5-0.6-1-0.9-1.4c-0.3-0.4-0.6-0.8-1-1.3c0.2-0.1,0.3-0.1,0.4-0.2c0.1,0,0.2-0.1,0.3-0.1
		c0.1-0.1,0.3-0.2,0.3-0.3c0.1-0.1,0.2-0.2,0.2-0.2l4.8,7.9c-0.2,0.1-0.3,0.1-0.4,0.2c-0.1,0.1-0.2,0.1-0.3,0.1
		c-0.2,0.1-0.3,0.2-0.4,0.3c-0.1,0.1-0.2,0.2-0.2,0.2c-0.4-0.8-0.6-1.3-0.7-1.4C248.5,84.8,248.2,84.3,247.9,83.8z M241,93.7
		l7.4-4.5c0.1,0.2,0.2,0.4,0.3,0.6s0.2,0.4,0.3,0.5c0.1,0.2,0.3,0.4,0.4,0.6c0.1,0.2,0.2,0.3,0.3,0.4l-1.9,1.2
		c0.7-0.2,1.4-0.2,1.9-0.1c0.7,0.2,1.2,0.6,1.6,1.3c-0.3,0.1-0.6,0.3-1,0.5s-0.8,0.4-1.1,0.6l-0.2-0.1c0-0.1,0-0.3-0.1-0.4
		c-0.1-0.2-0.1-0.3-0.2-0.5c-0.2-0.3-0.5-0.6-0.8-0.7s-0.7-0.2-1-0.1c-0.1,0-0.3,0.1-0.5,0.2s-0.4,0.2-0.7,0.4L245,94l-2.8,1.7
		c-0.1-0.2-0.2-0.3-0.2-0.4c-0.2-0.4-0.3-0.6-0.4-0.7c-0.1-0.2-0.3-0.4-0.4-0.6C241.2,93.9,241.1,93.8,241,93.7z M241,102.4l5.1-0.5
		l5.5-7.6c0.1,0.2,0.2,0.4,0.4,0.7c0.2,0.3,0.2,0.5,0.3,0.5c0.1,0.2,0.2,0.4,0.4,0.6c0.2,0.3,0.3,0.4,0.4,0.5
		c-0.6,0.8-1.3,1.6-1.9,2.4c-0.5,0.6-1.1,1.4-1.8,2.4l1.9-0.4c0.6-0.1,1.3-0.2,1.9-0.4c0.7-0.1,1.3-0.3,2-0.4l0.3,0.7l0.4,0.6
		l-4.5,0.6c-0.7,0.1-1.8,0.2-3.2,0.5c-1.4,0.2-2.5,0.4-3.3,0.5c-1,0.2-2.1,0.4-3.3,0.6l-0.3-0.7L241,102.4z M216.8,92.8l-2.2-3.6
		c-1.1,0.2-1.9,0.4-2.5,0.5c-0.5,0.1-1,0.2-1.3,0.3l-0.4-0.7l-0.5-0.7l13.3-2.1l0.3,0.6l0.4,0.6l-8,10.8c-0.1-0.2-0.3-0.4-0.4-0.8
		c-0.2-0.3-0.3-0.5-0.3-0.6c-0.1-0.2-0.3-0.4-0.5-0.7c-0.2-0.3-0.4-0.5-0.4-0.5c0.6-0.7,1-1.2,1.3-1.5
		C216.1,93.8,216.5,93.3,216.8,92.8z M215.9,89.1l1.7,2.8l2.7-3.5L215.9,89.1z M216.1,101.2c-0.1,0-0.2,0-0.3,0.1s-0.2,0.1-0.3,0.2
		c-0.6,0.3-0.9,0.8-0.9,1.4c0,0.5,0.1,1.1,0.5,1.7c0.3,0.6,0.8,0.9,1.3,1c0.6,0.2,1.1,0.1,1.5-0.2c0.6-0.4,0.9-0.9,0.9-1.5
		c0-0.4-0.3-0.9-0.8-1.7c-0.3-0.4-0.5-0.8-0.7-0.9C216.9,101.1,216.6,101.1,216.1,101.2z M228.1,101.5l-0.7,0.4l-0.8-1.4
		c-0.1,0.8-0.5,1.4-1.2,1.9c-0.8,0.5-1.6,0.6-2.5,0.2c-0.8-0.3-1.4-1-2-1.9l-0.2-0.3c-0.1-0.2-0.2-0.3-0.4-0.3c-0.1,0-0.2,0-0.3,0
		s-0.1,0-0.2,0.1c-0.3,0.2-0.4,0.4-0.4,0.7c0,0.3,0.1,0.6,0.4,1l0.8,1.3c0.5,0.8,0.7,1.5,0.5,2.1c-0.1,0.5-0.5,1-1.1,1.4
		c-1.1,0.6-2.1,0.7-3.2,0.2c-1-0.4-1.8-1.2-2.5-2.3c-0.5-0.8-0.7-1.5-0.8-2.2c-0.1-0.9,0.3-1.6,1-2c0.4-0.2,0.8-0.4,1.3-0.3
		c0.4,0,0.8,0.2,1.2,0.5l0.3,0.1l0.1-0.2c-0.1-0.6,0.1-1.1,0.7-1.4c0.3-0.2,0.7-0.3,1.2-0.2c0.5,0.1,0.8,0.2,1.1,0.5l0.2,0.2
		c-0.5-1.5-0.1-2.6,1.3-3.4c0.8-0.5,1.6-0.6,2.3-0.2c0.8,0.4,1.5,1.1,2.1,2.2l0.9,1.6L228.1,101.5z M222.6,98.3
		c-0.6,0.4-1,0.7-1.2,1.1c-0.2,0.3-0.2,0.6,0,0.9c0.3,0.4,0.7,0.6,1.3,0.4c0.4-0.1,0.8-0.3,1.4-0.6c0.4-0.3,0.8-0.5,1-0.8
		c0.3-0.4,0.4-0.8,0.2-1.2c-0.3-0.4-0.7-0.6-1.3-0.4C223.6,97.8,223.2,98,222.6,98.3z M226,109.3l1.5-0.9c-0.3-0.2-0.5-0.4-0.7-0.6
		c-0.3-0.3-0.6-0.4-0.9-0.5c-0.3-0.1-0.5-0.1-0.8-0.1c-0.2,0.1-0.5,0.2-0.8,0.3c-0.3,0.2-0.6,0.5-0.8,0.7c-0.2,0.3-0.1,0.6,0,0.9
		c0.3,0.4,0.6,0.6,1.1,0.6C225.1,109.8,225.5,109.6,226,109.3z M230.3,109.6l-4.2,2.5c-0.3,0.2-0.4,0.3-0.5,0.5
		c0,0.2,0.1,0.4,0.2,0.7l-0.4,0.2c-0.2-0.1-0.4-0.3-0.7-0.5s-0.4-0.4-0.5-0.6c-0.2-0.3-0.3-0.7-0.3-1.1s0.2-0.8,0.5-1.1
		c-0.5,0-0.9-0.1-1.3-0.3c-0.4-0.2-0.7-0.5-1-1c-0.4-0.7-0.5-1.3-0.4-1.9s0.5-1.2,1.1-1.6c0.7-0.4,1.3-0.5,2-0.3
		c0.5,0.2,1.2,0.7,2.1,1.6c0.2,0.2,0.4,0.4,0.5,0.5c0.2,0.2,0.4,0.3,0.6,0.4c0.1,0,0.3,0,0.4,0c0.1,0,0.2-0.1,0.4-0.1
		c0.4-0.2,0.6-0.6,0.7-1c0.1-0.5,0-0.9-0.2-1.2c-0.3-0.4-0.6-0.8-1.1-1c-0.4-0.2-0.7-0.3-0.9-0.2L227,104l0.8-0.8
		c0.5,0.1,1.1,0.4,1.5,0.8c0.5,0.4,0.9,0.9,1.2,1.4c0.5,0.8,0.7,1.5,0.7,2.2C231.3,108.5,231,109.2,230.3,109.6z M226,115.1l7.4-4.5
		c0.1,0.2,0.2,0.4,0.3,0.6s0.2,0.4,0.3,0.5c0.1,0.2,0.3,0.4,0.4,0.6c0.1,0.2,0.2,0.3,0.3,0.4l-7.4,4.5c-0.1-0.2-0.2-0.3-0.2-0.4
		c-0.2-0.4-0.3-0.6-0.4-0.7c-0.1-0.2-0.3-0.4-0.4-0.6C226.2,115.3,226.1,115.2,226,115.1z M236.2,108.7c0.3-0.2,0.7-0.2,1.1-0.2
		c0.4,0.1,0.7,0.3,0.9,0.6c0.2,0.3,0.3,0.7,0.2,1.1s-0.3,0.7-0.6,0.9c-0.3,0.2-0.7,0.3-1.1,0.2c-0.4-0.1-0.7-0.3-0.9-0.6
		c-0.2-0.3-0.3-0.7-0.2-1.1C235.6,109.2,235.8,108.9,236.2,108.7z M228.5,119.1l7.4-4.5c0.1,0.2,0.2,0.4,0.3,0.6s0.2,0.4,0.3,0.5
		c0.1,0.2,0.3,0.4,0.4,0.6c0.1,0.2,0.2,0.3,0.3,0.4l-1.1,0.7c0.6,0.1,1.1,0.3,1.5,0.5c0.5,0.3,0.9,0.6,1.2,1.1
		c0.6,0.9,0.7,1.7,0.3,2.4c-0.3,0.6-0.9,1.2-1.9,1.9l-4.5,2.7c-0.1-0.2-0.2-0.3-0.2-0.4c-0.2-0.4-0.3-0.6-0.4-0.7
		c-0.1-0.2-0.3-0.4-0.4-0.6c-0.1-0.2-0.2-0.3-0.3-0.4l3.8-2.3c0.8-0.5,1.4-0.9,1.6-1.3c0.4-0.5,0.4-1,0.1-1.5
		c-0.4-0.6-0.9-0.8-1.7-0.5c-0.5,0.1-1.1,0.4-1.8,0.9l-3.5,2.1c-0.1-0.2-0.2-0.3-0.2-0.4c-0.2-0.4-0.3-0.6-0.4-0.7
		c-0.1-0.2-0.3-0.4-0.4-0.6C228.7,119.4,228.6,119.2,228.5,119.1z"/>
	<path class="st0" d="M150.9,150.3l-0.4-0.7l-0.4,0.7L75.3,279.7l-0.2,0.4l0.4,0.2c22.8,13.2,48.7,20.1,75,20.1s52.2-6.9,75-20.1
		l0.4-0.2l-0.3-0.4L150.9,150.3z"/>
	<path class="st2" d="M181.7,264.7l0.4-5c1-0.2,1.8-0.3,2.6-0.4s1.5-0.1,2.3,0c2,0.2,3.7,0.8,4.9,1.9c1.3,1.2,1.9,2.8,1.8,4.8
		c-0.2,2.1-1,3.8-2.5,4.9c-1.4,1-3.2,1.5-5.4,1.3c-0.8-0.1-1.5-0.2-2.2-0.4c-0.7-0.2-1.4-0.6-2-1c0.3-0.6,0.5-1.2,0.6-1.8h0.3
		c0.4,0.6,0.8,1.1,1.4,1.5c0.6,0.4,1.2,0.6,1.9,0.6c1.4,0.1,2.6-0.4,3.5-1.5c0.8-1,1.3-2.3,1.4-3.9c0.1-1.5-0.2-2.8-0.8-3.7
		c-0.7-0.9-1.7-1.5-3.1-1.6c-0.4,0-0.8,0-1.1,0c-0.3,0.1-0.6,0.2-0.9,0.3l-0.3,4.2c-0.2,0-0.5-0.1-0.8-0.1s-0.5-0.1-0.6-0.1
		c-0.2,0-0.4,0-0.5,0C182.1,264.7,181.8,264.7,181.7,264.7z M177.2,264l-2.6-0.2c-0.1,0.7,0,1.3,0,1.8c0.1,0.7,0.4,1.1,0.9,1.2
		c0.6,0,1-0.3,1.3-1C177.1,265.3,177.2,264.7,177.2,264z M172.2,262.8l5.1,0.4c0.1-1,0-1.8-0.3-2.4c-0.4-0.7-1-1-1.9-1.1
		c-0.4,0-0.7,0-1.1,0.1c-0.4,0.1-0.7,0.3-1,0.5l-0.2-0.2l0.5-1c0.8-0.5,1.7-0.7,2.6-0.6c1.5,0.1,2.5,0.6,3.2,1.5s1,2.1,0.9,3.6
		c-0.1,1.3-0.5,2.3-1.3,3s-1.8,1.1-3.1,1s-2.2-0.6-2.8-1.5C172.3,265.2,172.1,264.2,172.2,262.8z M167.4,265.6l0.4-5.1
		c0-0.6,0-1,0-1.3c-0.1-0.2-0.3-0.4-0.7-0.4c-0.2,0-0.5,0-0.8,0.1l0.1-0.7c0.7-0.2,1.4-0.3,1.9-0.3c0.9,0.1,1.4,0.4,1.8,1
		c0.3,0.5,0.4,1.2,0.3,2.1l-0.4,4.8l1.2,0.1c0,0.1-0.1,0.2-0.1,0.3c0,0.1,0,0.2,0,0.3v0.2c0,0.1,0,0.1,0,0.2s0,0.2,0,0.2l-1.2-0.1
		l-0.2,2c-0.3,0.1-0.7,0.2-1.2,0.4c-0.5,0.2-0.9,0.3-1.4,0.5l0.2-3.1l-1.5-0.1c0-0.1,0-0.2,0.1-0.3c0-0.1,0-0.2,0-0.2
		c0-0.1,0-0.2,0-0.3c0-0.1,0-0.2,0-0.3L167.4,265.6z M147.9,262l0.4-5c1-0.2,1.8-0.3,2.6-0.4s1.5-0.1,2.3,0c2,0.2,3.7,0.8,4.9,1.9
		c1.3,1.2,1.9,2.8,1.8,4.8c-0.2,2.1-1,3.8-2.5,4.9c-1.4,1-3.2,1.5-5.4,1.3c-0.8-0.1-1.5-0.2-2.2-0.4c-0.7-0.2-1.4-0.6-2-1
		c0.3-0.6,0.5-1.2,0.6-1.8h0.3c0.4,0.6,0.8,1.1,1.4,1.5c0.6,0.4,1.2,0.6,1.9,0.6c1.4,0.1,2.6-0.4,3.5-1.5c0.8-1,1.3-2.3,1.4-3.9
		c0.1-1.5-0.2-2.8-0.8-3.7c-0.7-0.9-1.7-1.5-3.1-1.6c-0.4,0-0.8,0-1.1,0c-0.3,0.1-0.6,0.2-0.9,0.3l-0.3,4.2c-0.2,0-0.5-0.1-0.8-0.1
		s-0.5-0.1-0.6-0.1c-0.2,0-0.4,0-0.5,0C148.3,262.1,148,262.1,147.9,262z M145.9,256.3l-0.7,8.7c-0.2,0-0.4-0.1-0.7-0.1
		s-0.4-0.1-0.6-0.1c-0.3,0-0.5,0-0.7,0s-0.4,0-0.5,0l0.2-2.2c-0.3,0.7-0.6,1.3-1.1,1.6c-0.5,0.4-1.2,0.6-2,0.5
		c0.1-0.3,0.1-0.7,0.2-1.2c0-0.5,0.1-0.9,0.1-1.3l0.2-0.1c0.1,0.1,0.2,0.2,0.4,0.2s0.3,0.1,0.5,0.1c0.4,0,0.8,0,1.1-0.2
		s0.5-0.5,0.7-0.8c0.1-0.1,0.1-0.3,0.1-0.5s0.1-0.5,0.1-0.8l0.1-0.8l0.3-3.2c0.2,0,0.3,0.1,0.4,0.1c0.4,0.1,0.7,0.1,0.8,0.1
		c0.3,0,0.5,0,0.7,0C145.6,256.3,145.8,256.3,145.9,256.3z M134.7,258.4l-0.1,1.7c0.4-0.1,0.7-0.2,0.9-0.2c0.4-0.1,0.7-0.2,0.9-0.4
		c0.2-0.1,0.4-0.3,0.5-0.6c0.1-0.2,0.2-0.5,0.2-0.8c0-0.4,0-0.8-0.1-1c-0.1-0.3-0.4-0.4-0.7-0.5c-0.5,0-0.9,0.1-1.1,0.5
		C134.8,257.4,134.7,257.9,134.7,258.4z M131.9,261.7l0.4-4.9c0-0.3,0-0.6-0.1-0.7s-0.4-0.2-0.7-0.2v-0.4c0.2-0.1,0.5-0.2,0.8-0.3
		s0.6-0.1,0.8-0.1c0.4,0,0.8,0.2,1.1,0.4c0.3,0.3,0.5,0.6,0.6,1c0.3-0.4,0.6-0.7,1-0.9s0.9-0.3,1.4-0.2c0.8,0.1,1.4,0.3,1.8,0.7
		c0.5,0.5,0.7,1.1,0.6,1.8c-0.1,0.8-0.4,1.4-0.9,1.7c-0.5,0.3-1.3,0.5-2.6,0.7c-0.3,0-0.5,0.1-0.7,0.1c-0.3,0.1-0.5,0.1-0.7,0.2
		c-0.1,0.1-0.2,0.2-0.2,0.3c-0.1,0.1-0.1,0.2-0.1,0.4c0,0.4,0.1,0.8,0.5,1.1c0.3,0.3,0.7,0.5,1.1,0.6c0.5,0,1-0.1,1.5-0.3
		c0.4-0.2,0.7-0.4,0.8-0.6h0.1l0.1,1.1c-0.4,0.3-1,0.6-1.6,0.8c-0.6,0.2-1.2,0.2-1.8,0.2c-0.9-0.1-1.6-0.3-2.2-0.7
		C132.2,263.2,131.9,262.5,131.9,261.7z M130.2,255.1l-0.7,8.7c-0.2,0-0.4-0.1-0.6-0.1c-0.2,0-0.4-0.1-0.6-0.1c-0.3,0-0.5,0-0.7,0
		s-0.4,0-0.5,0l0.1-1.3c-0.4,0.4-0.9,0.7-1.3,1c-0.5,0.2-1,0.3-1.6,0.3c-1.1-0.1-1.8-0.5-2.2-1.2c-0.3-0.6-0.5-1.5-0.4-2.7l0.4-5.2
		c0.2,0,0.3,0.1,0.4,0.1c0.4,0.1,0.7,0.1,0.8,0.1c0.3,0,0.5,0,0.7,0s0.4,0,0.5,0l-0.4,4.5c-0.1,1,0,1.7,0.1,2.1
		c0.2,0.6,0.6,0.9,1.2,0.9c0.7,0.1,1.2-0.3,1.5-1.1c0.2-0.4,0.3-1.1,0.4-2l0.3-4.1c0.2,0,0.3,0.1,0.4,0.1c0.4,0.1,0.7,0.1,0.8,0.1
		c0.3,0,0.5,0,0.7,0C129.9,255.1,130.1,255.1,130.2,255.1z M116.7,261.6l0.4-5.1c0-0.6,0-1,0-1.3c-0.1-0.2-0.3-0.4-0.7-0.4
		c-0.2,0-0.5,0-0.8,0.1l0.1-0.7c0.7-0.2,1.4-0.3,1.9-0.3c0.9,0.1,1.4,0.4,1.8,1c0.3,0.5,0.4,1.2,0.3,2.1l-0.4,4.8l1.2,0.1
		c0,0.1-0.1,0.2-0.1,0.3c0,0.1,0,0.2,0,0.3v0.2c0,0.1,0,0.1,0,0.2s0,0.2,0,0.2l-1.2-0.1l-0.2,2c-0.3,0.1-0.7,0.2-1.2,0.4
		c-0.5,0.2-0.9,0.3-1.4,0.5l0.2-3.1l-1.5-0.1c0-0.1,0-0.2,0.1-0.3c0-0.1,0-0.2,0-0.2c0-0.1,0-0.2,0-0.3c0-0.1,0-0.2,0-0.3H116.7z
		 M114.1,260.8L113,264c-0.1,0.3-0.2,0.6-0.3,0.8c-0.1,0.3-0.2,0.6-0.4,0.9c-0.2,0.3-0.3,0.5-0.5,0.6s-0.4,0.2-0.7,0.1
		c-0.3,0-0.6-0.2-0.8-0.4c-0.2-0.2-0.3-0.5-0.3-0.8c0-0.2,0.1-0.4,0.2-0.6c0.5-0.7,1.1-1.4,1.7-2.1c0.2-0.3,0.8-1,1.7-2.1
		L114.1,260.8z M109.4,255.7H109c-0.1-0.5-0.4-0.9-0.7-1.2c-0.3-0.3-0.7-0.5-1.2-0.5c-0.3,0-0.7,0.1-1,0.2c-0.3,0.2-0.5,0.4-0.5,0.8
		c0,0.4,0.3,0.8,1,1.2c1.1,0.6,1.8,1,1.9,1.1c0.7,0.6,1,1.3,0.9,2.2c-0.1,0.9-0.4,1.6-1.1,2c-0.6,0.5-1.4,0.7-2.2,0.6
		c-0.5,0-0.9-0.1-1.4-0.3c-0.5-0.2-0.8-0.4-1.2-0.7l0.6-1.5h0.5c0,0.4,0.2,0.8,0.5,1.1c0.3,0.3,0.6,0.5,1.1,0.5c0.4,0,0.7,0,1-0.2
		c0.3-0.1,0.4-0.4,0.5-0.7c0-0.4-0.3-0.8-1-1.2c-1.1-0.6-1.8-0.9-1.9-1.1c-0.7-0.6-1-1.3-0.9-2.3c0.1-0.8,0.4-1.5,1.1-2
		c0.6-0.5,1.5-0.7,2.6-0.6c0.9,0.1,1.7,0.4,2.4,0.9L109.4,255.7z M181.3,246.4l0.3-4.2H181c-0.3,0-0.6,0-0.8,0s-0.5,0.1-0.7,0.3
		c-0.3,0.2-0.5,0.5-0.6,0.8c-0.2,0.3-0.2,0.7-0.3,1c0,0.6,0.1,1.1,0.4,1.5c0.3,0.4,0.8,0.6,1.4,0.6
		C180.7,246.5,181,246.5,181.3,246.4z M181.7,241.2l0.4-4.8l-0.9-0.1c-0.5,0-1,0.1-1.5,0.5s-0.7,0.9-0.8,1.7c-0.1,0.9,0.1,1.6,0.6,2
		C180,240.9,180.7,241.1,181.7,241.2z M184.9,235.5l-1,12.2l-4.6-0.4c-1-0.1-1.8-0.3-2.4-0.7c-0.7-0.5-1-1.3-0.9-2.2
		c0.1-0.8,0.4-1.4,1.1-1.9c0.6-0.4,1.3-0.7,2.1-0.7v-0.2c-0.9-0.2-1.5-0.4-2-0.8c-0.7-0.6-1-1.4-0.9-2.4c0.1-1.2,0.6-2,1.6-2.6
		c0.8-0.5,1.8-0.7,3-0.6L184.9,235.5z M174.2,234.6l-0.7,8.7c-0.2,0-0.4-0.1-0.7-0.1s-0.4-0.1-0.6-0.1c-0.3,0-0.5,0-0.7,0
		s-0.4,0-0.5,0l0.2-2.2c-0.3,0.7-0.6,1.3-1.1,1.6c-0.5,0.4-1.2,0.6-2,0.5c0.1-0.3,0.1-0.7,0.2-1.2c0-0.5,0.1-0.9,0.1-1.3l0.2-0.1
		c0.1,0.1,0.2,0.2,0.4,0.2s0.3,0.1,0.5,0.1c0.4,0,0.8,0,1.1-0.2s0.5-0.5,0.7-0.8c0.1-0.1,0.1-0.3,0.1-0.5s0.1-0.5,0.1-0.8l0.1-0.8
		l0.3-3.2c0.2,0,0.3,0.1,0.4,0.1c0.4,0.1,0.7,0.1,0.8,0.1c0.3,0,0.5,0,0.7,0C173.8,234.6,174,234.6,174.2,234.6z M162.9,236.6
		l-0.1,1.7c0.4-0.1,0.7-0.2,0.9-0.2c0.4-0.1,0.7-0.2,0.9-0.4c0.2-0.1,0.4-0.3,0.5-0.6c0.1-0.2,0.2-0.5,0.2-0.8c0-0.4,0-0.8-0.1-1
		c-0.1-0.3-0.4-0.4-0.7-0.5c-0.5,0-0.9,0.1-1.1,0.5C163.1,235.7,162.9,236.1,162.9,236.6z M160.2,239.9l0.4-4.9c0-0.3,0-0.6-0.1-0.7
		c-0.1-0.1-0.4-0.2-0.7-0.2v-0.4c0.2-0.1,0.5-0.2,0.8-0.3s0.6-0.1,0.8-0.1c0.4,0,0.8,0.2,1.1,0.4c0.3,0.3,0.5,0.6,0.6,1
		c0.3-0.4,0.6-0.7,1-0.9s0.9-0.3,1.4-0.2c0.8,0.1,1.4,0.3,1.8,0.7c0.5,0.5,0.7,1.1,0.6,1.8c-0.1,0.8-0.4,1.4-0.9,1.7
		s-1.3,0.5-2.6,0.7c-0.3,0-0.5,0.1-0.7,0.1c-0.3,0.1-0.5,0.1-0.7,0.2c-0.1,0.1-0.2,0.2-0.2,0.3c-0.1,0.1-0.1,0.2-0.1,0.4
		c0,0.4,0.1,0.8,0.4,1.1c0.3,0.3,0.7,0.5,1.1,0.6c0.5,0,1-0.1,1.5-0.3c0.4-0.2,0.7-0.4,0.8-0.6h0.1l0.1,1.1c-0.4,0.3-1,0.6-1.6,0.8
		s-1.2,0.2-1.8,0.2c-0.9-0.1-1.6-0.3-2.2-0.7C160.4,241.4,160.1,240.8,160.2,239.9z M158.5,233.3l-0.7,8.7c-0.2,0-0.4-0.1-0.6-0.1
		c-0.3,0-0.4-0.1-0.6-0.1c-0.3,0-0.5,0-0.7,0s-0.4,0-0.5,0l0.1-1.3c-0.4,0.4-0.9,0.7-1.3,1c-0.5,0.2-1,0.3-1.6,0.3
		c-1.1-0.1-1.8-0.5-2.2-1.2c-0.3-0.6-0.5-1.5-0.4-2.7l0.4-5.2c0.2,0,0.3,0.1,0.4,0.1c0.4,0.1,0.7,0.1,0.8,0.1c0.3,0,0.5,0,0.7,0
		s0.4,0,0.5,0l-0.4,4.5c-0.1,1,0,1.7,0.1,2.1c0.2,0.6,0.6,0.9,1.2,0.9c0.7,0.1,1.2-0.3,1.5-1.1c0.2-0.4,0.3-1.1,0.4-2l0.3-4.1
		c0.2,0,0.3,0.1,0.4,0.1c0.4,0.1,0.7,0.1,0.8,0.1c0.3,0,0.5,0,0.7,0C158.2,233.3,158.3,233.3,158.5,233.3z M139.5,245.5l1.1-13.6
		c0.3,0,0.5,0.1,0.7,0.1s0.3,0,0.5,0.1c0.3,0,0.5,0,0.7,0s0.4,0,0.5,0l-0.1,1.6c0.5-1.1,1.4-1.6,2.6-1.5c1.2,0.1,2.1,0.6,2.6,1.6
		c0.5,0.8,0.6,1.9,0.5,3.2c-0.1,1.2-0.5,2.3-1.1,3c-0.7,0.9-1.6,1.3-2.7,1.2c-0.6,0-1-0.2-1.4-0.4s-0.7-0.6-0.9-1.1l-0.5,6
		c-0.2,0-0.4-0.1-0.7-0.1s-0.4-0.1-0.6-0.1c-0.3,0-0.5,0-0.7,0C139.8,245.5,139.7,245.5,139.5,245.5z M144,239.9
		c0.7,0.1,1.2-0.3,1.5-1.2c0.2-0.6,0.4-1.3,0.5-2.1s0-1.5-0.1-2c-0.2-0.9-0.6-1.3-1.2-1.4c-0.7-0.1-1.2,0.3-1.6,1.2
		c-0.2,0.6-0.4,1.3-0.5,2.1s0,1.5,0.1,2C143,239.4,143.4,239.9,144,239.9z M135.9,236.8l-2.6-0.2c-0.1,0.7,0,1.3,0,1.8
		c0.1,0.7,0.4,1.1,0.9,1.2c0.6,0,1-0.3,1.3-1C135.7,238.1,135.8,237.5,135.9,236.8z M130.9,235.5l5.1,0.4c0.1-1,0-1.8-0.3-2.4
		c-0.4-0.7-1-1-1.9-1.1c-0.4,0-0.7,0-1.1,0.1c-0.4,0.1-0.7,0.3-1,0.5l-0.2-0.2l0.5-1c0.8-0.5,1.7-0.7,2.6-0.6
		c1.5,0.1,2.5,0.6,3.2,1.5s1,2.1,0.9,3.6c-0.1,1.3-0.5,2.3-1.3,3s-1.8,1.1-3.1,1s-2.2-0.6-2.8-1.5
		C130.9,238,130.7,236.9,130.9,235.5z M120.7,244l1.1-13.6c0.3,0,0.5,0.1,0.7,0.1s0.3,0,0.5,0.1c0.3,0,0.5,0,0.7,0s0.4,0,0.5,0
		l-0.1,1.6c0.5-1.1,1.4-1.6,2.6-1.5s2.1,0.6,2.6,1.6c0.5,0.8,0.6,1.9,0.5,3.2c-0.1,1.2-0.5,2.3-1.1,3c-0.7,0.9-1.6,1.3-2.7,1.2
		c-0.6,0-1-0.2-1.4-0.4s-0.7-0.6-0.9-1.1l-0.5,6c-0.2,0-0.4-0.1-0.7-0.1c-0.3,0-0.4-0.1-0.6-0.1c-0.3,0-0.5,0-0.7,0
		C121,244,120.8,244,120.7,244z M125.1,238.4c0.7,0.1,1.2-0.3,1.5-1.2c0.2-0.6,0.4-1.3,0.5-2.1s0-1.5-0.1-2
		c-0.2-0.9-0.6-1.3-1.2-1.4c-0.7-0.1-1.2,0.3-1.6,1.2c-0.2,0.6-0.4,1.3-0.5,2.1s0,1.5,0.1,2C124.1,237.9,124.5,238.4,125.1,238.4z
		 M168.6,215.7l0.4-5c1-0.2,1.8-0.3,2.6-0.4c0.8-0.1,1.5-0.1,2.3,0c2,0.2,3.7,0.8,4.9,1.9c1.3,1.2,1.9,2.8,1.8,4.8
		c-0.2,2.1-1,3.8-2.5,4.9c-1.4,1-3.2,1.5-5.4,1.3c-0.8-0.1-1.5-0.2-2.2-0.4s-1.4-0.6-2-1c0.3-0.6,0.5-1.2,0.6-1.8h0.3
		c0.4,0.6,0.8,1.1,1.4,1.5c0.6,0.4,1.2,0.6,1.9,0.6c1.4,0.1,2.6-0.4,3.5-1.5c0.8-1,1.3-2.3,1.4-3.9c0.1-1.5-0.2-2.8-0.8-3.7
		c-0.7-0.9-1.7-1.5-3.1-1.6c-0.4,0-0.8,0-1.1,0c-0.3,0.1-0.6,0.2-0.9,0.3l-0.3,4.2c-0.2,0-0.5-0.1-0.8-0.1s-0.5-0.1-0.6-0.1
		c-0.2,0-0.4,0-0.5,0C169,215.7,168.7,215.7,168.6,215.7z M162.9,209.5c1.3,0.1,2.3,0.6,3.1,1.4c0.7,0.8,1,1.9,0.9,3.2
		c-0.1,1.4-0.6,2.5-1.4,3.3c-0.8,0.8-1.9,1.1-3.3,1c-1.4-0.1-2.4-0.6-3.1-1.4c-0.7-0.8-1-1.9-0.9-3.2c0.1-1.4,0.6-2.5,1.4-3.3
		C160.4,209.8,161.5,209.4,162.9,209.5z M162.1,217.7c0.7,0.1,1.2-0.3,1.5-1c0.3-0.6,0.5-1.5,0.6-2.7c0.1-0.9,0-1.7-0.1-2.2
		c-0.2-0.9-0.6-1.4-1.3-1.5c-0.6,0-1.1,0.4-1.5,1.2c-0.3,0.7-0.5,1.7-0.6,2.8c-0.1,1,0,1.7,0.2,2.3
		C161.1,217.3,161.5,217.7,162.1,217.7z M152.9,208.7c1.3,0.1,2.3,0.6,3.1,1.4c0.7,0.8,1,1.9,0.9,3.2c-0.1,1.4-0.6,2.5-1.4,3.3
		c-0.8,0.8-1.9,1.1-3.3,1c-1.4-0.1-2.4-0.6-3.1-1.4c-0.7-0.8-1-1.9-0.9-3.2c0.1-1.4,0.6-2.5,1.4-3.3
		C150.4,209,151.6,208.6,152.9,208.7z M152.2,216.9c0.7,0.1,1.2-0.3,1.5-1c0.3-0.6,0.5-1.5,0.6-2.7c0.1-0.9,0-1.7-0.1-2.2
		c-0.2-0.9-0.6-1.4-1.3-1.5c-0.6,0-1.1,0.4-1.5,1.2c-0.3,0.7-0.5,1.7-0.6,2.8c-0.1,1,0,1.7,0.2,2.3
		C151.2,216.5,151.6,216.9,152.2,216.9z M137.9,221.4l1.1-13.6c0.3,0,0.5,0.1,0.7,0.1s0.3,0,0.5,0.1c0.3,0,0.5,0,0.7,0s0.4,0,0.5,0
		l-0.1,1.6c0.5-1.1,1.4-1.6,2.6-1.5c1.2,0.1,2.1,0.6,2.6,1.6c0.5,0.8,0.6,1.9,0.5,3.2c-0.1,1.2-0.5,2.3-1.1,3
		c-0.7,0.9-1.6,1.3-2.7,1.2c-0.6,0-1-0.2-1.4-0.4s-0.7-0.6-0.9-1.1l-0.5,6c-0.2,0-0.4-0.1-0.7-0.1s-0.4-0.1-0.6-0.1
		c-0.3,0-0.5,0-0.7,0C138.2,221.4,138.1,221.4,137.9,221.4z M142.4,215.8c0.7,0.1,1.2-0.3,1.5-1.2c0.2-0.6,0.4-1.3,0.5-2.1
		s0-1.5-0.1-2c-0.2-0.9-0.6-1.3-1.2-1.4c-0.7-0.1-1.2,0.3-1.6,1.2c-0.2,0.6-0.4,1.3-0.5,2.1s0,1.5,0.1,2
		C141.4,215.3,141.8,215.7,142.4,215.8z M136.7,207.6l-0.7,8.7c-0.2,0-0.4-0.1-0.7-0.1s-0.4-0.1-0.6-0.1c-0.3,0-0.5,0-0.7,0
		s-0.4,0-0.5,0l0.7-8.7c0.2,0,0.3,0.1,0.4,0.1c0.4,0.1,0.7,0.1,0.8,0.1c0.3,0,0.5,0,0.7,0C136.4,207.6,136.6,207.6,136.7,207.6z
		 M136,219.6c0,0.4-0.2,0.7-0.5,1s-0.6,0.4-1,0.4s-0.7-0.2-1-0.5s-0.4-0.6-0.3-1c0-0.4,0.2-0.7,0.5-1s0.6-0.4,1-0.3
		c0.4,0,0.7,0.2,1,0.5C135.9,218.8,136,219.2,136,219.6z M129.3,212.2l-2.6-0.2c-0.1,0.7,0,1.3,0,1.8c0.1,0.7,0.4,1.1,0.9,1.2
		c0.6,0,1-0.3,1.3-1C129.1,213.5,129.3,212.9,129.3,212.2z M124.3,211l5.1,0.4c0.1-1,0-1.8-0.3-2.4c-0.4-0.7-1-1-1.9-1.1
		c-0.4,0-0.7,0-1.1,0.1s-0.7,0.3-1,0.5l-0.2-0.2l0.5-1c0.8-0.5,1.7-0.7,2.6-0.6c1.5,0.1,2.5,0.6,3.2,1.5s1,2.1,0.9,3.6
		c-0.1,1.3-0.5,2.3-1.3,3s-1.8,1.1-3.1,1c-1.3-0.1-2.2-0.6-2.8-1.5C124.3,213.5,124.2,212.4,124.3,211z"/>
</g>
</svg>
